{
  "accessors": [
    {
      "bufferView": 2,
      "componentType": 5126,
      "count": 11637,
      "max": [
        2.7421152591705322,
        5.846266746520996,
        2.7421152591705322
      ],
      "min": [
        -6.743230819702148,
        0.005340127274394035,
        -4.005681037902832
      ],
      "type": "VEC3"
    },
    {
      "bufferView": 2,
      "byteOffset": 139644,
      "componentType": 5126,
      "count": 11637,
      "max": [
        1.0,
        1.0,
        1.0
      ],
      "min": [
        -1.0,
        -1.0,
        -1.0
      ],
      "type": "VEC3"
    },
    {
      "bufferView": 1,
      "componentType": 5126,
      "count": 11637,
      "max": [
        1.0,
        1.0
      ],
      "min": [
        0.0,
        0.0
      ],
      "type": "VEC2"
    },
    {
      "bufferView": 0,
      "componentType": 5125,
      "count": 30858,
      "type": "SCALAR"
    },
    {
      "bufferView": 2,
      "byteOffset": 279288,
      "componentType": 5126,
      "count": 4157,
      "max": [
        1.2917484045028687,
        5.0666608810424805,
        2.6776509284973145
      ],
      "min": [
        -5.192684173583984,
        0.21938544511795044,
        -2.4953064918518066
      ],
      "type": "VEC3"
    },
    {
      "bufferView": 2,
      "byteOffset": 329172,
      "componentType": 5126,
      "count": 4157,
      "max": [
        1.0,
        1.0,
        1.0
      ],
      "min": [
        -1.0,
        -1.0,
        -1.0
      ],
      "type": "VEC3"
    },
    {
      "bufferView": 1,
      "byteOffset": 93096,
      "componentType": 5126,
      "count": 4157,
      "max": [
        1.0,
        1.0
      ],
      "min": [
        0.0,
        0.0
      ],
      "type": "VEC2"
    },
    {
      "bufferView": 0,
      "byteOffset": 123432,
      "componentType": 5125,
      "count": 6432,
      "type": "SCALAR"
    },
    {
      "bufferView": 2,
      "byteOffset": 379056,
      "componentType": 5126,
      "count": 751,
      "max": [
        0.597754716873169,
        5.844512462615967,
        1.7060774564743042
      ],
      "min": [
        -0.5959970355033875,
        1.5436489582061768,
        -2.3589847087860107
      ],
      "type": "VEC3"
    },
    {
      "bufferView": 2,
      "byteOffset": 388068,
      "componentType": 5126,
      "count": 751,
      "max": [
        1.0,
        0.9994615316390991,
        0.9999293684959412
      ],
      "min": [
        -1.0,
        -0.9994615912437439,
        -0.9994615912437439
      ],
      "type": "VEC3"
    },
    {
      "bufferView": 1,
      "byteOffset": 126352,
      "componentType": 5126,
      "count": 751,
      "max": [
        1.0,
        1.0
      ],
      "min": [
        0.0,
        0.0
      ],
      "type": "VEC2"
    },
    {
      "bufferView": 0,
      "byteOffset": 149160,
      "componentType": 5125,
      "count": 1800,
      "type": "SCALAR"
    },
    {
      "bufferView": 2,
      "byteOffset": 397080,
      "componentType": 5126,
      "count": 4,
      "max": [
        2.7421152591705322,
        0.3727521002292633,
        2.7421152591705322
      ],
      "min": [
        -6.743230819702148,
        0.3727521002292633,
        -4.005681037902832
      ],
      "type": "VEC3"
    },
    {
      "bufferView": 2,
      "byteOffset": 397128,
      "componentType": 5126,
      "count": 4,
      "max": [
        0.0,
        1.0,
        0.0
      ],
      "min": [
        0.0,
        1.0,
        0.0
      ],
      "type": "VEC3"
    },
    {
      "bufferView": 1,
      "byteOffset": 132360,
      "componentType": 5126,
      "count": 4,
      "max": [
        0.875,
        0.75
      ],
      "min": [
        0.625,
        0.5
      ],
      "type": "VEC2"
    },
    {
      "bufferView": 0,
      "byteOffset": 156360,
      "componentType": 5125,
      "count": 6,
      "type": "SCALAR"
    },
    {
      "bufferView": 2,
      "byteOffset": 397176,
      "componentType": 5126,
      "count": 3087,
      "max": [
        0.34999826550483704,
        4.2590413093566895,
        2.7559492588043213
      ],
      "min": [
        -4.606545448303223,
        0.7698867321014404,
        -2.3940281867980957
      ],
      "type": "VEC3"
    },
    {
      "bufferView": 2,
      "byteOffset": 434220,
      "componentType": 5126,
      "count": 3087,
      "max": [
        1.0,
        1.0,
        1.0
      ],
      "min": [
        -1.0,
        -1.0,
        -1.0
      ],
      "type": "VEC3"
    },
    {
      "bufferView": 1,
      "byteOffset": 132392,
      "componentType": 5126,
      "count": 3087,
      "max": [
        1.0,
        1.0
      ],
      "min": [
        0.0,
        0.0
      ],
      "type": "VEC2"
    },
    {
      "bufferView": 0,
      "byteOffset": 156384,
      "componentType": 5125,
      "count": 8532,
      "type": "SCALAR"
    }
  ],
  "asset": {
    "extras": {
      "author": "_._bespalov_._ (https://sketchfab.com/_._bespalov_._)",
      "license": "CC-BY-4.0 (http://creativecommons.org/licenses/by/4.0/)",
      "source": "https://sketchfab.com/3d-models/oil-pump-jack-08f0fc1d37d74831912c7b9c59c84d5a",
      "title": "Oil Pump Jack"
    },
    "generator": "Sketchfab-12.64.0",
    "version": "2.0"
  },
  "bufferViews": [
    {
      "buffer": 0,
      "byteLength": 190512,
      "name": "floatBufferViews",
      "target": 34963
    },
    {
      "buffer": 0,
      "byteLength": 157088,
      "byteOffset": 190512,
      "byteStride": 8,
      "name": "floatBufferViews",
      "target": 34962
    },
    {
      "buffer": 0,
      "byteLength": 471264,
      "byteOffset": 347600,
      "byteStride": 12,
      "name": "floatBufferViews",
      "target": 34962
    }
  ],
  "buffers": [
    {
      "byteLength": 818864,
      "uri": "scene.bin"
    }
  ],
  "materials": [
    {
      "doubleSided": true,
      "name": "Material.001",
      "pbrMetallicRoughness": {
        "baseColorFactor": [
          0.0,
          0.0,
          0.0,
          1.0
        ],
        "metallicFactor": 0.5,
        "roughnessFactor": 0.4
      }
    },
    {
      "doubleSided": true,
      "name": "Material.003",
      "pbrMetallicRoughness": {
        "baseColorFactor": [
          0.17435,
          0.17435,
          0.17435,
          1.0
        ],
        "metallicFactor": 0.743119,
        "roughnessFactor": 0.3
      }
    },
    {
      "doubleSided": true,
      "name": "Material.004",
      "pbrMetallicRoughness": {
        "baseColorFactor": [
          0.8,
          0.387296,
          0.000619593,
          1.0
        ],
        "metallicFactor": 0.366973,
        "roughnessFactor": 0.6
      }
    },
    {
      "doubleSided": true,
      "name": "Material.005",
      "pbrMetallicRoughness": {
        "baseColorFactor": [
          0.0628461,
          0.018849,
          0.00226909,
          1.0
        ]
      }
    },
    {
      "doubleSided": true,
      "name": "Material.002",
      "pbrMetallicRoughness": {
        "baseColorFactor": [
          0.8,
          0.0,
          0.00367404,
          1.0
        ],
        "metallicFactor": 0.0,
        "roughnessFactor": 0.5
      }
    }
  ],
  "meshes": [
    {
      "name": "Object_0",
      "primitives": [
        {
          "attributes": {
            "NORMAL": 1,
            "POSITION": 0,
            "TEXCOORD_0": 2
          },
          "indices": 3,
          "material": 0,
          "mode": 4
        }
      ]
    },
    {
      "name": "Object_1",
      "primitives": [
        {
          "attributes": {
            "NORMAL": 5,
            "POSITION": 4,
            "TEXCOORD_0": 6
          },
          "indices": 7,
          "material": 1,
          "mode": 4
        }
      ]
    },
    {
      "name": "Object_2",
      "primitives": [
        {
          "attributes": {
            "NORMAL": 9,
            "POSITION": 8,
            "TEXCOORD_0": 10
          },
          "indices": 11,
          "material": 2,
          "mode": 4
        }
      ]
    },
    {
      "name": "Object_3",
      "primitives": [
        {
          "attributes": {
            "NORMAL": 13,
            "POSITION": 12,
            "TEXCOORD_0": 14
          },
          "indices": 15,
          "material": 3,
          "mode": 4
        }
      ]
    },
    {
      "name": "Object_4",
      "primitives": [
        {
          "attributes": {
            "NORMAL": 17,
            "POSITION": 16,
            "TEXCOORD_0": 18
          },
          "indices": 19,
          "material": 4,
          "mode": 4
        }
      ]
    }
  ],
  "nodes": [
    {
      "children": [
        1
      ],
      "matrix": [
        1.0,
        0.0,
        0.0,
        0.0,
        0.0,
        2.220446049250313e-16,
        -1.0,
        0.0,
        0.0,
        1.0,
        2.220446049250313e-16,
        0.0,
        0.0,
        0.0,
        0.0,
        1.0
      ],
      "name": "Sketchfab_model"
    },
    {
      "children": [
        2
      ],
      "name": "root"
    },
    {
      "children": [
        3
      ],
      "matrix": [
        1.0,
        0.0,
        0.0,
        0.0,
        0.0,
        2.220446049250313e-16,
        1.0,
        0.0,
        0.0,
        -1.0,
        2.220446049250313e-16,
        0.0,
        0.0,
        0.0,
        0.0,
        1.0
      ],
      "name": "GLTF_SceneRootNode"
    },
    {
      "children": [
        4,
        5,
        6,
        7,
        8
      ],
      "name": "Cube_0"
    },
    {
      "mesh": 0,
      "name": "Object_4"
    },
    {
      "mesh": 1,
      "name": "Object_5"
    },
    {
      "mesh": 2,
      "name": "Object_6"
    },
    {
      "mesh": 3,
      "name": "Object_7"
    },
    {
      "mesh": 4,
      "name": "Object_8"
    }
  ],
  "scene": 0,
  "scenes": [
    {
      "name": "Sketchfab_Scene",
      "nodes": [
        0
      ]
    }
  ]
}
